<?xml version="1.0" standalone="no"?>
<!DOCTYPE svg PUBLIC "-//W3C//DTD SVG 20010904//EN"
 "http://www.w3.org/TR/2001/REC-SVG-20010904/DTD/svg10.dtd">
<svg version="1.0" xmlns="http://www.w3.org/2000/svg"
 width="512.000000pt" height="512.000000pt" viewBox="0 0 512.000000 512.000000"
 preserveAspectRatio="xMidYMid meet">
<metadata>
Created by potrace 1.15, written by Peter Selinger 2001-2017
</metadata>
<g transform="translate(0.000000,512.000000) scale(0.100000,-0.100000)"
fill="#000000" stroke="none">
<path d="M1263 5091 c-22 -16 -50 -49 -62 -73 -20 -42 -21 -60 -21 -292 0
-226 2 -250 20 -285 79 -156 298 -149 365 11 12 30 15 83 15 275 0 214 -2 242
-20 278 -42 87 -87 115 -186 115 -63 0 -76 -3 -111 -29z"/>
<path d="M2064 5101 c-50 -30 -83 -82 -95 -146 -17 -91 -8 -461 12 -505 71
-157 281 -164 361 -11 l28 53 0 227 c0 127 -5 243 -11 264 -12 43 -59 101
-100 123 -42 21 -156 19 -195 -5z"/>
<path d="M2855 5101 c-43 -26 -82 -75 -95 -119 -5 -20 -10 -139 -10 -263 l0
-227 28 -53 c66 -126 221 -150 319 -49 54 55 58 81 58 345 0 215 -2 244 -19
275 -44 84 -88 110 -183 110 -49 0 -77 -5 -98 -19z"/>
<path d="M3632 5097 c-85 -63 -92 -92 -92 -374 0 -188 3 -241 15 -271 67 -160
286 -167 365 -11 18 35 20 59 20 285 0 232 -1 250 -21 292 -12 24 -40 57 -62
73 -36 26 -48 29 -117 29 -64 0 -81 -4 -108 -23z"/>
<path d="M1105 4121 c-49 -23 -89 -64 -109 -113 -14 -33 -16 -195 -16 -1448 0
-1253 2 -1415 16 -1448 20 -49 60 -90 109 -113 38 -18 99 -19 1455 -19 1356 0
1417 1 1455 19 49 23 89 64 109 113 14 33 16 195 16 1450 0 1354 -1 1415 -19
1453 -23 49 -64 89 -113 109 -33 14 -195 16 -1450 16 -1354 0 -1415 -1 -1453
-19z m2235 -1561 l0 -590 -780 0 -780 0 0 590 0 590 780 0 780 0 0 -590z"/>
<path d="M90 3929 c-14 -6 -40 -24 -57 -42 l-33 -31 0 -117 0 -117 33 -28 c61
-51 77 -54 347 -54 204 0 258 3 288 15 160 67 167 286 11 365 -35 18 -59 20
-301 19 -149 0 -274 -5 -288 -10z"/>
<path d="M4415 3925 c-149 -79 -153 -284 -6 -362 43 -22 52 -23 298 -23 276 0
299 4 356 58 44 41 57 75 57 145 0 73 -28 126 -88 167 -35 25 -37 25 -311 28
-236 2 -280 0 -306 -13z"/>
<path d="M107 3146 c-40 -15 -62 -30 -89 -61 -14 -16 -17 -40 -18 -130 0 -130
7 -145 84 -181 49 -23 59 -24 297 -24 l247 0 53 28 c153 80 146 289 -11 361
-49 22 -506 28 -563 7z"/>
<path d="M4436 3146 c-119 -44 -174 -200 -105 -300 30 -45 91 -84 143 -91 22
-4 145 -5 271 -3 259 3 280 8 339 82 26 32 31 47 34 106 4 61 1 75 -22 114
-17 29 -44 56 -74 73 l-47 28 -250 3 c-197 1 -258 -1 -289 -12z"/>
<path d="M103 2359 c-18 -5 -48 -24 -67 -43 l-36 -33 0 -115 c0 -112 1 -116
27 -143 60 -59 65 -60 343 -60 281 0 304 4 360 58 101 98 77 253 -49 319 l-53
28 -247 -1 c-135 0 -260 -5 -278 -10z"/>
<path d="M4424 2351 c-142 -65 -166 -242 -47 -340 56 -46 108 -53 368 -50
l230 4 47 28 c30 17 57 44 74 73 23 39 26 53 22 114 -3 59 -8 74 -34 106 -60
75 -77 79 -364 82 -232 2 -259 0 -296 -17z"/>
<path d="M90 1564 c-19 -8 -47 -27 -62 -41 -27 -26 -28 -29 -28 -144 l0 -117
36 -32 c20 -17 47 -36 61 -41 13 -5 141 -9 284 -9 239 0 263 2 298 20 156 79
149 298 -11 365 -54 22 -526 22 -578 -1z"/>
<path d="M4409 1557 c-145 -77 -144 -283 3 -358 37 -19 55 -20 312 -17 271 3
273 3 308 28 60 41 88 94 88 167 0 70 -13 104 -57 145 -57 54 -80 58 -356 58
-246 0 -255 -1 -298 -23z"/>
<path d="M1291 774 c-34 -17 -62 -41 -79 -67 l-27 -41 0 -271 0 -271 25 -36
c41 -60 94 -88 167 -88 70 0 104 13 145 57 54 56 58 81 58 340 0 210 -3 243
-19 278 -33 72 -111 125 -184 125 -18 0 -57 -12 -86 -26z"/>
<path d="M2105 788 c-48 -17 -93 -56 -118 -101 -21 -40 -22 -52 -22 -292 l0
-250 28 -47 c17 -30 44 -57 73 -74 39 -23 53 -26 114 -22 59 3 74 8 106 34 74
59 79 80 82 339 4 269 -2 299 -64 361 -58 58 -128 77 -199 52z"/>
<path d="M2885 785 c-50 -17 -111 -85 -125 -137 -7 -24 -10 -129 -8 -271 3
-261 8 -282 82 -341 32 -26 47 -31 106 -34 61 -4 75 -1 114 22 29 17 56 44 73
74 l28 47 0 250 c0 236 -1 252 -21 290 -27 50 -48 69 -104 94 -53 24 -90 25
-145 6z"/>
<path d="M3665 781 c-22 -10 -52 -31 -67 -47 -54 -58 -58 -83 -58 -339 0 -256
4 -282 58 -338 41 -44 75 -57 145 -57 73 0 126 28 167 88 l25 36 0 271 0 272
-29 41 c-33 48 -112 92 -165 92 -20 0 -54 -9 -76 -19z"/>
</g>
</svg>
