<svg height="480pt" viewBox="0 0 480 480" width="480pt" xmlns="http://www.w3.org/2000/svg"><path d="m88 88h304v304h-304zm0 0"/><path d="m416 56h-352c-4.417969 0-8 3.582031-8 8v352c0 4.417969 3.582031 8 8 8h352c4.417969 0 8-3.582031 8-8v-352c0-4.417969-3.582031-8-8-8zm-8 344c0 4.417969-3.582031 8-8 8h-320c-4.417969 0-8-3.582031-8-8v-320c0-4.417969 3.582031-8 8-8h320c4.417969 0 8 3.582031 8 8zm0 0"/><path d="m232 0h16v40h-16zm0 0"/><path d="m264 0h16v40h-16zm0 0"/><path d="m296 0h16v40h-16zm0 0"/><path d="m328 0h16v40h-16zm0 0"/><path d="m360 0h16v40h-16zm0 0"/><path d="m392 0h16v40h-16zm0 0"/><path d="m72 0h16v40h-16zm0 0"/><path d="m104 0h16v40h-16zm0 0"/><path d="m136 0h16v40h-16zm0 0"/><path d="m168 0h16v40h-16zm0 0"/><path d="m200 0h16v40h-16zm0 0"/><path d="m232 440h16v40h-16zm0 0"/><path d="m264 440h16v40h-16zm0 0"/><path d="m296 440h16v40h-16zm0 0"/><path d="m328 440h16v40h-16zm0 0"/><path d="m360 440h16v40h-16zm0 0"/><path d="m392 440h16v40h-16zm0 0"/><path d="m72 440h16v40h-16zm0 0"/><path d="m104 440h16v40h-16zm0 0"/><path d="m136 440h16v40h-16zm0 0"/><path d="m168 440h16v40h-16zm0 0"/><path d="m200 440h16v40h-16zm0 0"/><path d="m0 232h40v16h-40zm0 0"/><path d="m0 200h40v16h-40zm0 0"/><path d="m0 168h40v16h-40zm0 0"/><path d="m0 136h40v16h-40zm0 0"/><path d="m0 104h40v16h-40zm0 0"/><path d="m0 72h40v16h-40zm0 0"/><path d="m0 392h40v16h-40zm0 0"/><path d="m0 360h40v16h-40zm0 0"/><path d="m0 328h40v16h-40zm0 0"/><path d="m0 296h40v16h-40zm0 0"/><path d="m0 264h40v16h-40zm0 0"/><path d="m440 232h40v16h-40zm0 0"/><path d="m440 200h40v16h-40zm0 0"/><path d="m440 168h40v16h-40zm0 0"/><path d="m440 136h40v16h-40zm0 0"/><path d="m440 104h40v16h-40zm0 0"/><path d="m440 72h40v16h-40zm0 0"/><path d="m440 392h40v16h-40zm0 0"/><path d="m440 360h40v16h-40zm0 0"/><path d="m440 328h40v16h-40zm0 0"/><path d="m440 296h40v16h-40zm0 0"/><path d="m440 264h40v16h-40zm0 0"/></svg>