<svg viewBox="-18 0 511 512" xmlns="http://www.w3.org/2000/svg"><path d="m133.90625 504.5h207.707031c12.101563 0 23.925781-3.832031 33.621094-11.082031 56.019531-41.898438 92.285156-108.753907 92.285156-184.089844 0-68.25-29.769531-129.539063-77.019531-171.621094v-68.285156h-305.480469v68.285156c-47.25 42.082031-77.019531 103.371094-77.019531 171.621094 0 75.335937 36.265625 142.191406 92.285156 184.089844 9.695313 7.25 21.519532 11.082031 33.621094 11.082031zm0 0" fill="#f9efd1"/><path d="m38 309.328125c0-68.25 29.769531-129.539063 77.019531-171.621094v-68.285156h-30v68.285156c-47.25 42.082031-77.019531 103.371094-77.019531 171.621094 0 75.335937 36.265625 142.191406 92.285156 184.089844 9.691406 7.25 21.519532 11.082031 33.621094 11.082031h30c-12.101562 0-23.929688-3.832031-33.621094-11.082031-56.019531-41.898438-92.285156-108.753907-92.285156-184.089844zm0 0" fill="#e6ddc1"/><path d="m422.1875 313.648438c0 36.296874-29.425781 65.71875-65.71875 65.71875-36.296875 0-65.71875-29.421876-65.71875-65.71875 0-36.296876 29.421875-65.71875 65.71875-65.71875 36.292969 0 65.71875 29.421874 65.71875 65.71875zm0 0" fill="#c2e3ee"/><path d="m316.207031 313.648438c0-31.9375 22.789063-58.546876 52.988281-64.472657-4.117187-.8125-8.371093-1.246093-12.726562-1.246093-36.296875 0-65.71875 29.425781-65.71875 65.71875 0 36.296874 29.421875 65.71875 65.71875 65.71875 4.355469 0 8.609375-.433594 12.726562-1.242188-30.199218-5.929688-52.988281-32.535156-52.988281-64.476562zm0 0" fill="#add9e8"/><path d="m184.769531 313.648438c0 36.296874-29.421875 65.71875-65.71875 65.71875-36.292969 0-65.71875-29.421876-65.71875-65.71875 0-36.296876 29.425781-65.71875 65.71875-65.71875 36.296875 0 65.71875 29.421874 65.71875 65.71875zm0 0" fill="#62c397"/><path d="m78.792969 313.648438c0-31.9375 22.789062-58.546876 52.988281-64.472657-4.117188-.8125-8.371094-1.246093-12.726562-1.246093-36.296876 0-65.71875 29.425781-65.71875 65.71875 0 36.296874 29.421874 65.71875 65.71875 65.71875 4.355468 0 8.609374-.433594 12.726562-1.242188-30.203125-5.929688-52.988281-32.535156-52.988281-64.476562zm0 0" fill="#20ab6c"/><path d="m303.480469 336.019531c0 36.296875-29.425781 65.71875-65.71875 65.71875-36.296875 0-65.722657-29.421875-65.722657-65.71875s29.425782-65.71875 65.722657-65.71875c36.292969 0 65.71875 29.421875 65.71875 65.71875zm0 0" fill="#e8a8c2"/><path d="m197.5 336.019531c0-31.941406 22.789062-58.546875 52.988281-64.476562-4.117187-.808594-8.371093-1.242188-12.726562-1.242188-36.296875 0-65.722657 29.421875-65.722657 65.71875s29.425782 65.71875 65.722657 65.71875c4.355469 0 8.609375-.433593 12.726562-1.242187-30.199219-5.929688-52.988281-32.539063-52.988281-64.476563zm0 0" fill="#db9eb7"/><path d="m210.230469 403.808594c0 36.296875-29.425781 65.71875-65.71875 65.71875-36.296875 0-65.71875-29.421875-65.71875-65.71875s29.421875-65.71875 65.71875-65.71875c36.292969 0 65.71875 29.421875 65.71875 65.71875zm0 0" fill="#ab8ecd"/><path d="m104.253906 403.808594c0-31.9375 22.785156-58.546875 52.988282-64.472656-4.121094-.8125-8.375-1.246094-12.730469-1.246094-36.292969 0-65.71875 29.425781-65.71875 65.71875 0 36.296875 29.421875 65.71875 65.71875 65.71875 4.355469 0 8.609375-.433594 12.730469-1.242188-30.203126-5.929687-52.988282-32.539062-52.988282-64.476562zm0 0" fill="#9d7bc6"/><path d="m396.726562 403.808594c0 36.296875-29.421874 65.71875-65.71875 65.71875-36.292968 0-65.71875-29.421875-65.71875-65.71875s29.425782-65.71875 65.71875-65.71875c36.296876 0 65.71875 29.421875 65.71875 65.71875zm0 0" fill="#e3637b"/><path d="m290.75 403.808594c0-31.9375 22.785156-58.546875 52.988281-64.472656-4.121093-.8125-8.375-1.246094-12.730469-1.246094-36.292968 0-65.71875 29.425781-65.71875 65.71875 0 36.296875 29.425782 65.71875 65.71875 65.71875 4.355469 0 8.609376-.433594 12.730469-1.242188-30.203125-5.929687-52.988281-32.539062-52.988281-64.476562zm0 0" fill="#d75e74"/><path d="m303.480469 420.78125c0 36.296875-29.425781 65.71875-65.71875 65.71875-36.296875 0-65.722657-29.421875-65.722657-65.71875s29.425782-65.71875 65.722657-65.71875c36.292969 0 65.71875 29.421875 65.71875 65.71875zm0 0" fill="#f5d96c"/><path d="m197.5 420.78125c0-31.9375 22.789062-58.546875 52.988281-64.476562-4.117187-.808594-8.371093-1.242188-12.726562-1.242188-36.296875 0-65.722657 29.421875-65.722657 65.71875s29.425782 65.71875 65.722657 65.71875c4.355469 0 8.609375-.433594 12.726562-1.242188-30.199219-5.929687-52.988281-32.539062-52.988281-64.476562zm0 0" fill="#eaca65"/><path d="m85.019531 69.421875h305.480469v68.285156h-305.480469zm0 0" fill="#e6ddc1"/><path d="m85.019531 69.421875h30v68.285156h-30zm0 0" fill="#ddd3b8"/><path d="m402.898438 97.777344h-330.277344c-8.265625 0-14.960938-6.699219-14.960938-14.960938v-60.355468c0-8.261719 6.695313-14.960938 14.960938-14.960938h330.277344c8.261718 0 14.960937 6.699219 14.960937 14.960938v60.355468c0 8.261719-6.699219 14.960938-14.960937 14.960938zm0 0" fill="#d0d1d2"/><path d="m87.660156 82.816406v-60.355468c0-8.261719 6.695313-14.960938 14.960938-14.960938h-30c-8.265625 0-14.960938 6.699219-14.960938 14.960938v60.355468c0 8.261719 6.695313 14.960938 14.960938 14.960938h30c-8.265625 0-14.960938-6.699219-14.960938-14.960938zm0 0" fill="#bbbcbd"/><path d="m398 134.375v-29.097656h4.898438c12.382812 0 22.460937-10.074219 22.460937-22.460938v-60.355468c0-12.386719-10.078125-22.460938-22.460937-22.460938h-330.28125c-12.382813 0-22.460938 10.074219-22.460938 22.460938v60.355468c0 12.386719 10.078125 22.460938 22.460938 22.460938h4.902343v29.101562c-48.992187 44.898438-77.019531 108.464844-77.019531 174.949219 0 38.039063 8.734375 74.378906 25.960938 108.003906 16.425781 32.066407 40.402343 60.457031 69.332031 82.09375 10.84375 8.109375 24.378906 12.574219 38.113281 12.574219h207.707031c13.734375 0 27.269531-4.464844 38.113281-12.574219 28.929688-21.640625 52.90625-50.027343 69.332032-82.09375 17.226562-33.628906 25.960937-69.964843 25.960937-108.003906 0-66.484375-28.027343-130.050781-77.019531-174.953125zm-44.679688-119.375h49.578126c4.113281 0 7.460937 3.347656 7.460937 7.460938v60.355468c0 4.113282-3.347656 7.460938-7.460937 7.460938h-49.578126zm-72.039062 0h57.039062v75.277344h-57.039062zm-72.042969 0h57.042969v75.277344h-57.042969zm-72.039062 0h57.039062v75.277344h-57.039062zm-64.582031 75.277344c-4.113282 0-7.460938-3.347656-7.460938-7.460938v-60.355468c0-4.113282 3.347656-7.460938 7.460938-7.460938h49.582031v75.277344h-37.171875s-.003906 0-.007813 0c-.003906 0-.007812 0-.011719 0zm298.125 397.136718c-8.265626 6.183594-18.609376 9.585938-29.128907 9.585938h-207.707031c-10.519531 0-20.863281-3.40625-29.128906-9.585938-56.738282-42.4375-89.277344-107.347656-89.277344-178.085937 0-62.398437 26.371094-122.039063 72.429688-164.121094h222.078124c4.144532 0 7.5-3.355469 7.5-7.5 0-4.140625-3.355468-7.5-7.5-7.5h-217.488281v-24.929687h290.480469v24.929687h-44.992188c-4.140624 0-7.5 3.359375-7.5 7.5 0 4.144531 3.359376 7.5 7.5 7.5h49.582032c46.058594 42.078125 72.429687 101.722657 72.429687 164.121094 0 70.738281-32.539062 135.648437-89.277343 178.085937zm58.945312-173.765624c0-40.371094-32.847656-73.21875-73.21875-73.21875-16.761719 0-33.144531 5.808593-46.132812 16.359374-9.074219 7.367188-16.226563 16.828126-20.894532 27.414063-13.253906-13.21875-31.527344-21.402344-51.679687-21.402344-20.15625 0-38.429688 8.183594-51.683594 21.402344-4.667969-10.582031-11.820313-20.046875-20.894531-27.414063-12.988282-10.550781-29.371094-16.359374-46.128906-16.359374-40.375 0-73.21875 32.847656-73.21875 73.21875 0 24.144531 12.0625 46.804687 31.808593 60.382812-4.070312 9.105469-6.351562 19.179688-6.351562 29.777344 0 40.375 32.847656 73.21875 73.21875 73.21875 13.023437 0 25.554687-3.390625 36.660156-9.835938 13.441406 16.355469 33.816406 26.808594 56.589844 26.808594 22.769531 0 43.144531-10.453125 56.585937-26.808594 11.105469 6.445313 23.636719 9.835938 36.660156 9.835938 40.375 0 73.21875-32.84375 73.21875-73.21875 0-10.597656-2.28125-20.667969-6.347656-29.769532 19.78125-13.578124 31.808594-36.109374 31.808594-60.390624zm-191.925781-35.847657c32.101562 0 58.21875 26.117188 58.21875 58.21875 0 1.175781-.039063 2.359375-.109375 3.539063-8.164063 4.464844-15.480469 10.496094-21.503906 17.851562-10.777344-6.25-23.277344-9.847656-36.605469-9.847656s-25.828125 3.597656-36.605469 9.847656c-6.019531-7.347656-13.335938-13.363281-21.496094-17.832031-.070312-1.183594-.117187-2.375-.117187-3.558594-.003907-32.101562 26.113281-58.21875 58.21875-58.21875zm-176.925781 35.847657c0-32.101563 26.113281-58.21875 58.21875-58.21875 26.074218 0 49.199218 17.765624 56.101562 42.648437-6.304688 10.371094-10.089844 22.429687-10.546875 35.320313-6.457031-1.839844-13.210937-2.808594-20.097656-2.808594-24.394531 0-46.027344 12.003906-59.339844 30.402344-15.132813-10.867188-24.335937-28.542969-24.335937-47.34375zm83.675781 148.378906c-32.101563 0-58.21875-26.117188-58.21875-58.21875 0-32.101563 26.117187-58.21875 58.21875-58.21875 17.253906 0 33.445312 7.632812 44.457031 20.65625-14.980469 13.417968-24.429688 32.890625-24.429688 54.535156 0 12.21875 3.027344 23.742188 8.34375 33.878906-8.632812 4.835938-18.316406 7.367188-28.371093 7.367188zm93.25 16.972656c-32.105469 0-58.222657-26.117188-58.222657-58.21875s26.117188-58.21875 58.222657-58.21875c32.101562 0 58.21875 26.117188 58.21875 58.21875s-26.117188 58.21875-58.21875 58.21875zm93.246093-16.972656c-10.050781 0-19.738281-2.53125-28.371093-7.367188 5.316406-10.136718 8.34375-21.660156 8.34375-33.878906 0-21.648438-9.453125-41.128906-24.441407-54.546875 11.007813-13.03125 27.183594-20.644531 44.472657-20.644531 32.101562 0 58.21875 26.117187 58.21875 58.21875-.003907 32.101562-26.121094 58.21875-58.222657 58.21875zm0-131.4375c-6.890624 0-13.644531.964844-20.097656 2.800781-.457031-12.886719-4.242187-24.945313-10.546875-35.3125 6.902344-24.882813 30.027344-42.648437 56.105469-42.648437 32.101562 0 58.21875 26.117187 58.21875 58.21875 0 18.910156-9.179688 36.480468-24.339844 47.34375-13.3125-18.398438-34.945312-30.402344-59.339844-30.402344zm0 0"/></svg>