<svg height="448pt" viewBox="0 -3 448 447" width="448pt" xmlns="http://www.w3.org/2000/svg"><path d="m120 352.5c0 8.835938-7.164062 16-16 16s-16-7.164062-16-16 7.164062-16 16-16 16 7.164062 16 16zm0 0"/><path d="m96 128.5h16v128h8v-144h-32v144h8zm0 0"/><path d="m264 272.5c0 4.417969-3.582031 8-8 8s-8-3.582031-8-8 3.582031-8 8-8 8 3.582031 8 8zm0 0"/><path d="m296 208.5h96v-96h-96zm8-88h80v80h-80zm0 0"/><path d="m320 136.5h48v48h-48zm0 0"/><path d="m200 272.5c0 4.417969-3.582031 8-8 8s-8-3.582031-8-8 3.582031-8 8-8 8 3.582031 8 8zm0 0"/><path d="m0 24.5v416h448v-416h-56v16c0 4.417969-3.582031 8-8 8h-96c-4.417969 0-8-3.582031-8-8v-16h-16v8c0 4.417969-3.582031 8-8 8h-32c-4.417969 0-8-3.582031-8-8v-8h-16v16c0 4.417969-3.582031 8-8 8h-64c-4.417969 0-8-3.582031-8-8v-16zm32 16c8.835938 0 16 7.164062 16 16s-7.164062 16-16 16-16-7.164062-16-16 7.164062-16 16-16zm0 384c-8.835938 0-16-7.164062-16-16s7.164062-16 16-16 16 7.164062 16 16-7.164062 16-16 16zm24-152h-16v-16h16zm0-32h-16v-112h16zm0-128h-16v-16h16zm48 272c-17.671875 0-32-14.328125-32-32s14.328125-32 32-32 32 14.328125 32 32-14.328125 32-32 32zm216-104v16h-16v-16zm-16-8v-16h16v16zm112 64v16h-160v-16zm-72-56v16h-16v-16zm-16-8v-16h16v16zm40 8v16h-16v-16zm-16-8v-16h16v16zm40 8v16h-16v-16zm-16-8v-16h16v16zm-40 88h80v16h-80zm80 64c-8.835938 0-16-7.164062-16-16s7.164062-16 16-16 16 7.164062 16 16-7.164062 16-16 16zm0-384c8.835938 0 16 7.164062 16 16s-7.164062 16-16 16-16-7.164062-16-16 7.164062-16 16-16zm-136 56h128v128h-128zm0 176c0 13.253906-10.746094 24-24 24s-24-10.746094-24-24 10.746094-24 24-24 24 10.746094 24 24zm-64-168h32v16h-32zm0 32h32v16h-32zm0 32h32v16h-32zm0 32h32v16h-32zm-48-96h32v16h-32zm0 32h32v16h-32zm0 32h32v16h-32zm0 32h32v16h-32zm24 48c13.253906 0 24 10.746094 24 24s-10.746094 24-24 24-24-10.746094-24-24 10.746094-24 24-24zm-32 88h80v16h-80zm0 24h160v16h-160zm-24-264v176h-64v-176zm0 0"/><path d="m184 .5h-48v32h48zm0 0"/><path d="m376 .5h-80v32h80zm0 0"/><path d="m248 8.5h-16v16h16zm0 0"/></svg>